<?xml version="1.0" encoding="utf-8"?>
<!-- Generator: Adobe Illustrator 25.2.3, SVG Export Plug-In . SVG Version: 6.00 Build 0)  -->
<svg version="1.1" id="Layer_1" xmlns="http://www.w3.org/2000/svg" xmlns:xlink="http://www.w3.org/1999/xlink" x="0px" y="0px"
	 viewBox="0 0 1152.6 768" style="enable-background:new 0 0 1152.6 768;" xml:space="preserve">
<style type="text/css">
	.st0{fill:#CC0001;}
	.st1{fill:#FEFEFE;}
	.st2{fill:#C41311;}
	.st3{fill:#C41211;}
</style>
<g>
	<g>
		<path class="st0" d="M1159.4,440.8c0,105.3-0.3,210.6,0.4,315.8c0.1,12.7-2.6,15.2-15.2,15.2c-238.2-0.5-476.4-0.4-714.6-0.4
			c-8.4-7.3-8.9-17.1-8.9-27.2c-0.2-91.8-0.4-183.6,0.2-275.3c0.2-27.8,9.2-36.8,37.3-36.9c224.6-0.5,449.1-0.3,673.7-0.2
			C1142.2,431.9,1152.1,432.3,1159.4,440.8z"/>
		<path class="st0" d="M429.9-4.4c237.5,0,475,0.2,712.5-0.4c14.5,0,17.5,2.8,17.4,17.4c-0.8,103.2-0.4,206.3-0.4,309.5
			c-7.3,8.4-17.1,8.9-27.2,8.9c-224.6,0.2-449.1,0.4-673.7-0.2c-28.1-0.1-37.1-9.1-37.3-36.9c-0.6-90.4-0.3-180.7-0.2-271.1
			C421.1,12.8,421.5,2.9,429.9-4.4z"/>
		<path class="st1" d="M429.9-4.4c3.7,40.1,1.2,80.2,1.5,120.4c0.5,62.8,0.2,125.5,0.1,188.3c0,10.4-0.8,18.8,14.7,18.8
			c237.7-0.6,475.4-0.7,713.1-1c0,39.6,0,79.1,0,118.7c-235.2-0.1-470.4,0.1-705.6-0.6c-17.5,0-22.7,4.5-22.6,22.2
			c0.8,95.3,0.4,190.6,0.3,286c0,7.7-1,15.4-1.6,23.1c-38.2,0-76.3,0-114.5,0c-8.5-8.7-6.2-19.8-6.2-30.1
			c-0.2-87.4,0-174.9-0.1-262.3c0-31.3-0.8-31.9-31.9-31.9c-85.3-0.1-170.7,0.1-256-0.1c-9.7,0-20,1.8-28-6.3c0-39.6,0-79.1,0-118.7
			c8-8,18.3-6.3,28-6.3c86-0.1,172,0,258-0.1c28.2,0,29.8-1.6,29.9-29.9c0.2-86.7,0-173.4,0.2-260.1c0-10.3-2.3-21.4,6.2-30.1
			C353.6-4.4,391.8-4.4,429.9-4.4z"/>
		<path class="st0" d="M307,771.4c-100.4,0-200.7-0.2-301.1,0.3c-10.6,0-13-2.4-13-13C-6.7,654.2-6.9,549.6-6.9,445
			c7.3-4,15.2-2,22.9-2c69.9-0.2,139.8,0.6,209.7-0.5c23.4-0.4,46.1,4.9,69.3,5c16.2,0,16.2,12.4,16.2,24.2c0,63.5,0,127.1,0,190.6
			c0,28.9,0.1,57.9-0.1,86.8C311.1,756.7,312.5,764.8,307,771.4z"/>
		<path class="st0" d="M-6.9,317.8C-6.9,215-6.6,112.2-7.2,9.4C-7.3-2.3-4.9-4.8,6.9-4.7c100,0.6,200.1,0.3,300.1,0.3
			c5.5,6.7,4.2,14.7,4.2,22.3c0.1,89.6,0.1,179.1,0,268.7c0,24.1-7.3,33-30.7,33.1c-93.8,0.5-187.6,0.4-281.4,0.1
			C-3.2,319.8-5,318.7-6.9,317.8z"/>
		<path class="st2" d="M307,771.4c0-98.1-0.4-196.1,0.3-294.2c0.1-18.3-5.7-21.7-23.6-24.7C187,436.5,89.9,450.2-6.9,445
			c0-1.4,0-2.8,0-4.2c100.8-0.1,201.6,0.1,302.4-0.7c16.5-0.1,19.5,5.5,19.5,20.7c-0.4,103.6,0.2,207.1,0.5,310.7
			C312.6,771.4,309.8,771.4,307,771.4z"/>
		<path class="st3" d="M-6.9,317.8c91.2-0.1,182.3-0.1,273.5-0.2c30.8,0,40.2-9.5,40.3-40.1c0-94,0-187.9,0.1-281.9
			c2.8,0,5.7,0,8.5,0c-0.3,101.6-1.1,203.2-0.3,304.8c0.2,19.2-5.2,23.1-23.5,22.9c-99.5-1.2-199-1-298.5-1.2
			C-6.9,320.6-6.9,319.2-6.9,317.8z"/>
	</g>
</g>
</svg>
