<?xml version="1.0" encoding="utf-8"?>
<!-- Generator: Adobe Illustrator 25.2.3, SVG Export Plug-In . SVG Version: 6.00 Build 0)  -->
<svg version="1.1" id="Layer_1" xmlns="http://www.w3.org/2000/svg" xmlns:xlink="http://www.w3.org/1999/xlink" x="0px" y="0px"
	 viewBox="0 0 1366 768" style="enable-background:new 0 0 1366 768;" xml:space="preserve">
<style type="text/css">
	.st0{fill:#3C3B6D;}
	.st1{fill:#B12234;}
	.st2{fill:#FEFEFE;}
	.st3{fill:#FDFDFD;}
</style>
<g>
	<g>
		<path class="st0" d="M0.1,414.3C0.1,278,0.2,141.6,0,5.2C0,0.7,1.1,0,5.3,0c192.1,0.1,384.2,0.1,576.3,0.1
			c2.6,1.9,2.7,4.8,2.7,7.6c0,17.3,0.5,34.5-0.3,51.8c0.6,19.5,0.6,38.9,0,58.4c0.6,19.8,0.6,39.7,0,59.5c0.6,19.4,0.6,38.9,0,58.3
			c0.6,19.8,0.6,39.7,0,59.5c0.6,19.9,0.6,39.7,0,59.6c0.7,17.3,0.3,34.5,0.3,51.8c0,2.4-0.4,4.8-1.4,7.1c-1.2,2.6-3.5,3.1-6,3.3
			c-3.2,0.2-6.5,0.2-9.7,0.2c-184.3,0-368.5,0-552.8-0.1C9.6,417.1,4.2,418.7,0.1,414.3z"/>
		<path class="st1" d="M1453.8,708.3c0,18.6-0.1,37.3,0.1,55.9c0,3-0.7,4.2-3.7,3.7c-0.6-0.1-1.2,0-1.8,0
			c-480.9,0-961.8,0-1442.8,0.1c-4.5,0-5.7-1-5.6-5.6c0.3-18,0.1-36,0.1-54.1c1.6-2.1,4-2.6,6.5-2.7c3.4-0.1,6.9-0.1,10.3-0.1
			c473.4,0,946.8,0,1420.2,0c3.4,0,6.9,0,10.3,0.1C1449.8,705.7,1452.2,706.2,1453.8,708.3z"/>
		<path class="st1" d="M0.1,650c0-19.8,0-39.7,0-59.5c1.6-2.1,4-2.6,6.5-2.7c3.4-0.1,6.9-0.1,10.3-0.1c473.4,0,946.8,0,1420.2,0
			c3.4,0,6.9,0,10.3,0.1c2.5,0.1,4.8,0.6,6.5,2.7c0,19.8,0,39.7,0,59.5c-1.6,2.1-4,2.6-6.5,2.7c-3.4,0.1-6.9,0.1-10.3,0.1
			c-473.4,0-946.8,0-1420.2,0c-3.4,0-6.9,0-10.3-0.1C4.1,652.6,1.8,652.2,0.1,650z"/>
		<path class="st1" d="M1453.8,472.7c0,19.8,0,39.7,0,59.5c-1.6,2.1-4,2.6-6.5,2.7c-3.4,0.1-6.9,0.1-10.3,0.1
			c-473.4,0-946.8,0-1420.2,0c-3.4,0-6.9,0-10.3-0.1c-2.5-0.1-4.8-0.6-6.5-2.7c0-19.8,0-39.7,0-59.5c1.6-2.1,4-2.6,6.5-2.7
			c3.4-0.1,6.9-0.1,10.3-0.1c473.4,0,946.8,0,1420.2,0c3.4,0,6.9,0,10.3,0.1C1449.8,470.1,1452.2,470.5,1453.8,472.7z"/>
		<path class="st2" d="M1453.8,472.7c-1.6,0-3.2,0-4.8,0c-481.3,0-962.7,0-1444,0c-1.6,0-3.2,0-4.8,0c0-19.4,0-38.9,0-58.3
			c2.7-1.2,5.6-0.6,8.4-0.6c188.4,0,376.9,0,565.3-0.1c2.6,0,5.2,0.5,7.8-0.5c1.6-2.1,3.9-2.7,6.4-2.8c2.8-0.1,5.7-0.1,8.5-0.1
			c280.8,0,561.6,0,842.4,0c3,0,6.1,0,9.1,0.2c2.3,0.1,4.4,0.8,5.9,2.7C1453.8,433,1453.8,452.8,1453.8,472.7z"/>
		<path class="st2" d="M0.1,650c2.2-0.1,4.4-0.2,6.6-0.2c480.1,0,960.2,0,1440.4,0c2.2,0,4.4,0.1,6.6,0.2c0,19.4,0,38.9,0,58.3
			c-2.4,0.1-4.8,0.4-7.2,0.4c-479.7,0-959.5,0-1439.2,0c-2.4,0-4.8-0.2-7.2-0.4C0.1,688.9,0.1,669.4,0.1,650z"/>
		<path class="st2" d="M0.1,532.2c2.2-0.2,4.4-0.5,6.6-0.5c480.2,0,960.3,0,1440.5,0c2.2,0,4.4,0.3,6.6,0.5c0,19.4,0,38.9,0,58.3
			c-2.2,0-4.4,0.1-6.7,0.1c-480.1,0-960.2,0-1440.4,0c-2.2,0-4.4-0.1-6.7-0.1C0.1,571.1,0.1,551.6,0.1,532.2z"/>
		<path class="st1" d="M581.8,59.3c-0.1-19.7-0.1-39.4-0.2-59.2c288.9,0,577.8,0,866.7-0.1c4.5,0,5.7,1,5.6,5.6
			c-0.3,18-0.1,36-0.1,54.1c-1.5,1.9-3.5,2.5-5.9,2.7c-2.8,0.1-5.6,0.2-8.5,0.2c-281,0-562,0-843,0c-2.8,0-5.7,0-8.5-0.1
			C585.5,62.2,583.2,61.6,581.8,59.3z"/>
		<path class="st2" d="M581.8,354.6c0-19.7,0-39.5,0-59.2c1.4-2,3.5-2.6,5.8-2.7c3.2-0.2,6.5-0.2,9.7-0.2c280.3,0,560.7,0,841,0
			c3,0,6.1,0,9.1,0.1c2.5,0.1,4.8,0.6,6.5,2.7c0,19.8,0,39.7,0,59.5c-1.5,1.9-3.5,2.5-5.9,2.7c-2.8,0.1-5.6,0.2-8.5,0.2
			c-281.2,0-562.4,0-843.5,0c-2.8,0-5.6,0-8.5-0.2C585.1,357.3,583.1,356.6,581.8,354.6z"/>
		<path class="st1" d="M1453.8,295.3c-90.2,0-180.5,0-270.7,0c-200.4,0-400.9,0-601.3,0c0-19.7,0-39.4,0-59.1c1.3-2.5,3.6-3,6.1-3.1
			c3.2-0.2,6.5-0.2,9.7-0.2c280.2,0,560.5,0,840.7,0.1c5.2,0,11-1.8,15.5,2.7C1453.8,255.6,1453.8,275.5,1453.8,295.3z"/>
		<path class="st1" d="M581.8,177.4c0-19.8,0-39.5,0-59.3c1.4-2.1,3.4-2.7,5.7-2.8c2.8-0.2,5.6-0.2,8.5-0.2c281.2,0,562.3,0,843.5,0
			c2.8,0,5.6,0,8.5,0.2c2.3,0.1,4.4,0.8,5.8,2.7c0,19.8,0,39.7,0,59.5c-1.6,2.1-4,2.6-6.5,2.7c-3.2,0.1-6.5,0.1-9.7,0.1
			c-279.9,0-559.9,0-839.8,0c-3.2,0-6.5,0-9.7-0.1C585.7,180,583.3,179.7,581.8,177.4z"/>
		<path class="st1" d="M581.8,354.6c288,0,576.1,0,864.1,0c2.6,0,5.2,0.2,7.8,0.3c0,19.4,0,38.9,0,58.3c-2.2,0.1-4.4,0.3-6.6,0.3
			c-286.3,0-572.6,0-859,0c-2.2,0-4.4-0.1-6.6-0.2C581.6,393.7,581.7,374.1,581.8,354.6z"/>
		<path class="st2" d="M1453.8,117.9c-1.6,0.1-3.2,0.2-4.8,0.2c-289.1,0-578.1,0-867.2,0c0-19.6,0-39.2,0-58.8
			c289.1,0,578.1,0,867.2,0c1.6,0,3.2,0.2,4.8,0.4C1453.8,79.1,1453.8,98.5,1453.8,117.9z"/>
		<path class="st2" d="M581.8,177.4c289.1,0,578.1,0,867.2,0c1.6,0,3.2,0.1,4.8,0.1c0,19.4,0,38.9,0,58.3c-1.8,0.2-3.6,0.5-5.4,0.5
			c-288.5,0-577,0-865.4,0c-0.4,0-0.8,0-1.2,0C581.8,216.6,581.8,197,581.8,177.4z"/>
		<path class="st3" d="M449.9,391.1c-4.8-3.4-8.8-8.3-13.3-8.9c-4.7-0.5-8.3,5.7-13.2,7.9c-0.2-2.7,0.7-5,1.8-7
			c3.3-6.2,1.6-10.4-4.5-13.4c-1.9-0.9-3.4-2.5-5.2-3.9c0.6-0.5,0.8-0.9,1.1-1c4.8-0.5,10.8,1.9,14.1-1c3.1-2.8,3.5-8.6,5.1-13.2
			c0.6,0.2,1.2,0.3,1.2,0.5c1.6,11.6,7.7,16.9,21.1,12.5c-2.9,4.4-5.7,6-8.2,7.5c-4.1,2.4-5.5,5.1-3.2,9.7
			C448.1,383.8,448.7,387.3,449.9,391.1z"/>
		<path class="st3" d="M546.9,391.3c-1.2-0.7-1.6-0.9-1.9-1.2c-11-9.1-11-9-22.7-1.1c-0.6,0.4-1.3,0.7-3.8,2
			c7.4-11.9,6.5-20.6-8-24.9c7-2.3,13.2,0.8,16.6-2.1c3.3-2.8,3.9-8.8,5.7-13.4c0.6,0.3,1,0.4,1.2,0.7c2,4.3,1.4,10.8,5.4,12.8
			c3.8,1.9,9.3,0.4,14.7,1.7c-2.8,2.1-5.5,4.4-8.4,6.1c-3.5,2-3.9,4.4-2.5,7.9C544.5,383.2,545.5,386.7,546.9,391.3z"/>
		<path class="st3" d="M400.4,350.2c-8.5-11.7-17-10.7-26.1-0.7c6.2-11.6,5.5-20.3-8.3-24.4c1.6-1.1,1.9-1.6,2.2-1.5
			c11.5,2.2,18.3-2,18.5-14.5c1.2,0.6,1.8,0.7,1.8,0.9c1.6,11.6,7.7,16.8,20.3,12.7c0,0.6-0.1,1.3-0.1,1.9c-2.9,2.2-5.7,4.6-8.8,6.4
			c-3,1.8-3.6,3.7-2.3,6.9c1.4,3.3,2.3,6.8,3.4,10.2C400.8,348.8,400.6,349.5,400.4,350.2z"/>
		<path class="st3" d="M463.2,324c6.1-0.4,12.2,1,15.6-1.5c3.3-2.4,3.7-8.7,5.9-14.6c1.5,4.5,2.8,7.6,3.5,10.8
			c0.8,3.9,2.8,5.2,6.7,4.8c3.3-0.3,6.7-0.1,10.1-0.1c-0.1,0.9-0.1,1.5-0.3,1.6c-11,5.1-13.7,12.8-5.9,23.8c-0.6,0-1.2,0.1-1.8,0.1
			c-2.7-1.9-5.6-3.6-7.9-5.9c-3.3-3.1-6-2.8-9.2,0.1c-2.4,2.1-5.1,3.8-7.7,5.7c-0.4-0.6-0.7-0.9-0.7-1.1c1-4.9,5.3-9.9,3.4-14.2
			C473.4,329.7,467.9,327.6,463.2,324z"/>
		<path class="st3" d="M34.3,390.2c7.9-11.4,5.2-19.5-7.2-24.5c11.7,0.3,20.7-1.4,20.3-15.4c1.3,0.7,1.9,0.9,1.9,1.1
			c1.7,11.5,7.4,17.3,20.7,12.2c-0.2,0.8-0.4,1.6-0.6,2.3c-2.9,2.2-5.8,4.6-8.9,6.5c-3,1.8-3.5,3.8-2.3,6.9
			c1.4,3.3,2.3,6.8,3.9,11.8c-4.1-2.9-7.3-4.9-10-7.2c-2.6-2.2-4.6-2.5-7.2-0.1c-2.7,2.4-5.8,4.3-8.8,6.4
			C35.6,390.1,35,390.2,34.3,390.2z"/>
		<path class="st3" d="M222,282.5c5-0.3,11.1,1.1,14.5-1.3c3.3-2.4,3.8-8.7,6-14.5c1.3,3.7,2.4,6,2.8,8.4c0.9,5.9,4.2,7.9,9.9,7.1
			c2.5-0.4,5.1-0.1,9.4-0.1c-3.3,2.5-5.1,4.5-7.3,5.5c-6.1,2.8-6.5,7.1-3.9,12.6c1,2.1,1.5,4.5,2.7,8.3c-3.8-2.8-6.7-4.4-9.1-6.6
			c-3.3-3.1-6-2.8-9.2,0.1c-2.4,2.1-5.2,3.8-7.8,5.7c-0.3-0.6-0.7-1-0.6-1.2c5.6-10.4,4.4-18.6-8.9-22.9
			C220.9,283.2,221.5,282.8,222,282.5z"/>
		<path class="st3" d="M131.8,390.9c5.7-11.8,5.7-20.6-7.5-24.6c1-1,1.2-1.5,1.4-1.5c11.3,1.9,18.7-1.4,18.6-14.4
			c1.2,0.4,1.8,0.4,1.9,0.6c2.1,4.3,1.5,10.8,5.4,12.9c3.8,2,9.4,0.4,15.1,0.4c-2.4,4.1-5.9,5.7-8.8,7.7c-3.1,2-3.7,4.1-2.3,7.4
			c1.3,3.3,2.3,6.8,3.7,11c-5.2-3.3-9.5-8.2-13.8-8.3C141.1,382.3,137,387.4,131.8,390.9z"/>
		<path class="st3" d="M263.3,364.8c-9.8,6.6-15.8,13.5-6.4,25.2c-0.6,0.1-1.3,0.1-1.9,0.2c-3-2.1-6.1-4-8.8-6.4
			c-2.6-2.2-4.6-2.5-7.2-0.1c-2.7,2.4-5.8,4.3-10.3,7.4c1.6-4.9,2.5-8.4,3.9-11.7c1.5-3.4,0.6-5.5-2.5-7.4c-3-1.8-5.7-4.1-9.4-6.8
			c12,0.8,21-1,20.6-15c1.3,0.7,1.9,0.9,1.9,1.1C244.6,363.2,251.2,367.7,263.3,364.8z"/>
		<path class="st3" d="M173,324.4c0.8-0.6,0.9-0.8,1.1-0.8c4.8-0.2,10.8,1.3,14.1-1.1c3.2-2.3,3.6-8.5,5.5-13.5
			c2.7,2.9,3.1,6.6,3.9,9.8c1,3.8,2.9,5.2,6.8,4.8c3.3-0.3,6.7-0.1,10.1-0.1c-0.2,0.9-0.1,1.5-0.3,1.6c-11,5.1-13.6,12.8-5.9,23.8
			c-0.6,0-1.2,0-1.8,0.1c-2.5-1.8-5.3-3.3-7.5-5.5c-3.6-3.6-6.7-3.2-10.2,0.1c-2.2,2-4.8,3.6-7.3,5.3c-0.3-0.5-0.7-0.9-0.6-1.1
			c1-4.9,5.3-9.9,3.4-14.2C182.6,329.7,177.2,327.5,173,324.4z"/>
		<path class="st3" d="M338.9,350.3c0.8,0.5,1.1,0.6,1.1,0.7c1.8,11.3,7.4,17.2,20.8,12.6c-2.8,4.9-6.3,6.5-9.2,8.5
			c-3,2-3.7,4.1-2.4,7.4c1.4,3.3,2.3,6.8,3.7,11c-5.2-3.3-9.5-8.2-13.8-8.3c-4.1,0-8.2,5-13.5,8.6c1.5-4.5,2.3-7.9,3.7-11.2
			c1.5-3.6,0.8-5.9-2.6-7.8c-2.9-1.7-5.5-3.9-8.2-6c0.6-0.6,0.8-1,1.1-1c4.8-0.5,10.8,1.9,14.1-1
			C336.8,361.1,337.2,355.2,338.9,350.3z"/>
		<path class="st3" d="M48.6,266.1c1.6,4.9,2.9,8,3.6,11.2c0.8,3.9,2.8,5.2,6.7,4.8c3.3-0.3,6.7-0.1,12-0.1
			c-4.2,3.1-6.9,5.5-9.9,7.2c-3.5,2-3.9,4.4-2.5,7.9c1.3,3.1,2.1,6.4,3.7,11.2c-4.2-3-7.3-4.9-10.1-7.3c-2.6-2.3-4.6-2.3-7.3,0
			c-2.7,2.4-5.8,4.3-10.2,7.4c1.5-4.7,2.2-8.1,3.7-11.2c1.9-4,0.6-6.2-2.9-8.3c-2.8-1.6-5.2-3.7-7.7-6.9c3.4,0,6.9-0.3,10.2,0.1
			c3.9,0.4,5.9-0.9,6.7-4.8C45.6,274.1,47,271,48.6,266.1z"/>
		<path class="st3" d="M158.8,307c-0.6,0.1-0.8,0.3-0.9,0.2c-8.4-8-16.8-10.5-24.7,1.3c-0.5-1.5-0.9-2-0.7-2.2
			c5.7-10.5,4.2-18.5-9-22.9c0.5-0.4,0.9-0.9,1.4-1.3c3.3,0,6.6-0.3,9.8,0.1c4.5,0.6,6.5-1.4,7.4-5.6c0.6-2.9,1.9-5.7,3-9.2
			c2.7,3.2,3.1,6.8,4.1,10.1c1,3.4,2.5,5,6.3,4.6c3.4-0.4,6.8-0.1,10.9-0.1c-2,3.9-5.6,5.3-8.4,7.3c-2.9,2-3.9,4-2.5,7.4
			C156.8,300.1,157.7,303.6,158.8,307z"/>
		<path class="st3" d="M304.1,348.5c-9-10-17.5-9.1-26.5,0c0.8-2.6,1.2-5.5,2.5-7.9c2.8-5.4,1.3-8.8-3.9-11.5
			c-2.2-1.2-4.1-3-6.2-4.6c0.7-0.6,1-1,1.2-1c11.4,2.1,18.4-1.8,18.5-14.5c1.2,0.5,1.7,0.5,1.9,0.8c2.1,4.3,1.5,10.8,5.4,12.9
			c3.8,2,9.4,0.4,15.4,0.4c-3,4-6.3,5.8-9.3,7.8c-2.8,1.9-3.7,3.7-2.3,6.9C302.1,341.3,303,344.9,304.1,348.5z"/>
		<path class="st3" d="M353,308.2c-9.4-8.3-17.8-12.3-26.2,0.8c-0.3-0.7-0.5-1.4-0.8-2c1.1-3.3,1.8-6.7,3.2-9.7
			c1.9-4,0.7-6.3-2.8-8.3c-2.8-1.6-5.2-3.7-7.7-6.9c3.2,0,6.4-0.3,9.6,0.1c4.3,0.5,6.7-0.9,7.5-5.3c0.6-3,2-5.9,3.6-10.6
			c1.6,5,2.9,8.3,3.7,11.7c0.8,3.3,2.5,4.6,5.9,4.3c3.5-0.3,7.1-0.1,12.7-0.1c-4.2,3.1-6.9,5.5-9.9,7.2c-3.5,2-4,4.4-2.5,7.9
			C350.7,300.3,351.5,303.6,353,308.2z"/>
		<path class="st3" d="M414.5,282.4c13.5,2.7,20.3-1.8,20.7-14.6c1.2,0.5,1.8,0.6,1.8,0.8c1.6,11.7,7.8,16.8,21.1,12.5
			c-2.6,4.2-5.3,5.7-7.7,7.1c-4.5,2.6-6.3,5.5-3.5,10.6c1.4,2.6,1.8,5.6,2.4,9.5c-8.7-10.9-17.2-10.1-26.4-0.1
			C429,296.5,428.2,287.8,414.5,282.4z"/>
		<path class="st3" d="M554.7,282.3c-13,5.7-14.8,14.1-8.1,26c-9.2-11.1-17.8-10.3-27.1-0.2c6.9-11.8,4.7-20.1-7.9-24.7
			c1.2-0.9,1.6-1.3,1.8-1.3c11.4,2.1,18.5-1.7,18.5-14.4c1.2,0.5,1.8,0.6,1.8,0.8C535.5,280.2,541.7,285.3,554.7,282.3z"/>
		<path class="st3" d="M76.1,322.7c12.7,3.7,19.5-0.7,19.8-13.6c1.2,0.4,1.7,0.4,1.8,0.7c2.1,4.3,1.5,10.8,5.4,12.9
			c3.7,2,9.4,0.4,15,0.4c-1.8,3.5-4.5,4.9-6.9,6.3c-4.5,2.6-6.3,5.5-3.5,10.6c1.4,2.5,1.8,5.6,2.4,9.3c-8.7-10.1-17.2-10.8-25.7,1.3
			c-0.2-0.7-0.4-1.4-0.6-2.1c1.1-3.4,2-6.8,3.4-10.1c1.5-3.6,0.8-5.9-2.6-7.8c-2.9-1.6-5.4-3.9-8.1-6
			C76.3,324,76.2,323.3,76.1,322.7z"/>
		<path class="st3" d="M193.9,225.5c1.1,14.3,9,17.1,20.2,15.4c0.1,0,0.2,0.3,0.3,0.5c0,0.2,0.1,0.5,0,0.5
			c-10.3,5.5-14.7,12.8-6.4,23.7c-1.3,0.1-1.5,0.2-1.7,0.2c-4.5-2.2-7.9-8.2-12.5-7.7c-4.4,0.5-8.3,5.1-12.5,7.9
			c-0.2-0.5-0.5-0.9-0.4-1.2c1-4.9,5.3-9.9,3.4-14.2c-1.8-3.8-7.2-6-11-8.9c0.5-0.5,0.8-1,0.9-1
			C185.5,242.8,192.9,239.5,193.9,225.5z"/>
		<path class="st3" d="M276.6,266.2c7.9-11.4,5.3-19.5-7.1-24.6c11.8,0.5,20.6-1.5,20.3-15.5c1.3,0.8,1.9,0.9,1.9,1.1
			c1.4,11.9,7.9,16.5,20.3,12.8c-0.1,0.6-0.1,1.2-0.2,1.8c-2.8,2.1-5.4,4.4-8.4,6.1c-3.5,2-4,4.4-2.5,7.9c1.3,3.1,2.2,6.4,3.8,11.3
			c-4.2-3.1-7.3-5-10-7.4c-2.6-2.2-4.6-2.4-7.3-0.1c-2.8,2.4-6,4.4-9,6.6C277.8,266.3,277.2,266.3,276.6,266.2z"/>
		<path class="st3" d="M506.1,240.9c-12.2,6-15.3,13.9-7.7,26c-9.5-10.8-18-10.6-27-1.2c1-3.2,1.7-6.5,3.1-9.6
			c1.9-4.1,0.9-6.6-2.9-8.7c-2.7-1.5-5.1-3.7-7.7-5.6c0.7-0.6,1-1,1.2-1c4.8-0.5,10.8,1.9,14.1-1c3.1-2.8,3.5-8.7,5-13.2
			c0.6,0.2,1.2,0.3,1.3,0.5C487.1,238.6,492.9,244.2,506.1,240.9z"/>
		<path class="st3" d="M409.1,240c-0.8,1.9-0.9,2.2-1,2.3c-10.5,5.2-14.2,12.6-6,23.7c-0.6,0.1-1.2,0.2-1.8,0.3
			c-2.8-2-5.7-3.8-8.2-6.1c-2.9-2.6-5.3-2.8-8.3-0.1c-2.6,2.3-5.6,4.2-9.5,6.3c7-11.4,4.6-19.5-8.4-24.4c6.4-2.1,12.6,1.1,15.9-1.9
			c3.3-2.8,3.9-8.8,5.6-13.4c0.6,0.3,1.1,0.4,1.2,0.6C390,239.1,396.4,243.9,409.1,240z"/>
		<path class="st3" d="M82.8,266.2c7.9-11.4,5.2-19.5-7.7-24.4c6.4-2,12.6,1.1,16-1.8c3.3-2.8,3.8-8.8,5.6-13.4
			c0.6,0.3,1.2,0.5,1.2,0.7c1.4,11.9,7.9,16.5,20.3,12.8c-0.1,0.6-0.1,1.2-0.2,1.8c-2.8,2.1-5.4,4.4-8.4,6.1c-3.5,2-4,4.4-2.5,7.9
			c1.3,3.1,2.2,6.4,3.8,11.3c-4.2-3.1-7.3-5-10-7.4c-2.6-2.2-4.6-2.4-7.3-0.1c-2.8,2.4-6,4.4-9,6.6
			C83.9,266.3,83.4,266.3,82.8,266.2z"/>
		<path class="st3" d="M35.6,224.1c1.3-4.8,4.7-10.3,3.4-14.2c-1.3-4-7.2-6.4-12.4-10.5c4.9,0,8.6-0.3,12.2,0.1
			c3.4,0.3,5.1-0.9,5.9-4.2c0.8-3.4,2.1-6.7,4.4-10.1c1.1,3.3,2.3,6.6,3.2,10c0.8,3.3,2.4,4.6,5.9,4.3c3.6-0.3,7.2-0.1,12.7-0.1
			c-3.8,2.8-6.1,4.9-8.7,6.4c-4.1,2.3-5.6,5-3.3,9.6c1.4,2.8,1.9,6,2.6,10C52.8,214.8,44.3,215,35.6,224.1z"/>
		<path class="st3" d="M437.5,184.4c0,14.1,7.5,17.7,19.8,14.4c0,0.5,0,1.1,0,1.6c-2.9,2.2-5.7,4.6-8.8,6.4
			c-3.2,1.9-3.7,4.1-2.3,7.4c1.3,3.3,2.3,6.8,3.4,10.3c-0.6,0-0.9,0.1-1,0.1c-8.4-8-16.7-10.5-24.6,1.2c-0.6-1.4-0.9-1.9-0.8-2.1
			c5.7-10.4,4.3-18.5-8.9-22.8c0.4-0.5,0.9-1,1.3-1.5c3,0,6.1-0.3,9,0.1c4.8,0.6,7.5-0.8,8.3-5.9c0.5-2.9,1.8-5.6,2.8-8.3
			C436.3,185,436.9,184.7,437.5,184.4z"/>
		<path class="st3" d="M555.2,200.7c-13.5,4.6-15.2,13-8.5,24.8c-9.3-10.2-17.8-11-26.3,1c-0.2-0.7-0.4-1.4-0.6-2
			c1.2-3.6,2.1-7.2,3.5-10.7c1.2-3.1,0.8-5.1-2.2-6.9c-3.1-1.8-5.8-4.2-10.3-7.5c5.3,0,9-0.3,12.6,0.1c3.4,0.3,5.1-0.9,5.9-4.2
			c0.8-3.4,2.1-6.7,4.4-10.1c1.1,3.3,2.3,6.6,3.2,10c0.8,3.3,2.4,4.6,5.9,4.3c3.6-0.3,7.2-0.1,10.8-0.1
			C554.1,199.9,554.6,200.3,555.2,200.7z"/>
		<path class="st3" d="M243.5,184.5c0.6,13.3,6.9,18.5,20.8,13.6c-3.2,5.1-6.7,6.7-9.6,8.7c-3,2-3.8,4-2.4,7.4
			c1.4,3.3,2.3,6.8,3.8,11.5c-3.5-2.5-6.2-3.8-8.2-5.9c-4-4-7.3-3.6-11.2,0.1c-2,1.9-4.5,3.3-6.9,4.9c-0.3-0.5-0.7-0.9-0.6-1.1
			c5.8-10.5,4-18.7-7.4-23.8c4.9-0.3,11.1,1.1,14.4-1.3c3.3-2.4,3.9-8.7,5.7-13.3C242.5,185.1,243,184.8,243.5,184.5z"/>
		<path class="st3" d="M389,143c0,14.1,7.4,17.7,19.8,14.5c0,0.5-0.1,1.1-0.1,1.6c-2.8,2.1-5.4,4.5-8.4,6.2c-3.5,2-4,4.3-2.6,7.9
			c1.3,3.1,2.2,6.4,3.8,11.3c-4.2-3-7.2-5-10-7.3c-2.6-2.2-4.6-2.5-7.3-0.1c-2.8,2.4-6,4.4-10,6.6c7.1-11.4,4.6-19.5-8.4-24.4
			c6.4-2,12.6,1.1,16-1.8c3.3-2.8,3.8-8.8,5.6-13.4C387.9,143.7,388.5,143.3,389,143z"/>
		<path class="st3" d="M131.2,224.8c7.9-11.4,5.2-19.4-6.8-23.9c0.6-1,0.8-1.3,0.8-1.3c11.1,1.6,19.3-1,19-14.5
			c1.3,0.5,1.9,0.6,1.9,0.7c1.5,12,8.1,16.7,21,12.9c-1.3,1.9-1.6,2.4-2,2.8c-3.4,3.2-9.8,4.4-10.4,9.2c-0.6,4.1,2.4,8.8,4.3,14.7
			c-3.8-2.6-6.9-4.3-9.5-6.6c-3-2.7-5.4-2.5-8.3,0c-2.5,2.2-5.5,4-8.2,6C132.5,224.8,131.9,224.8,131.2,224.8z"/>
		<path class="st3" d="M498.2,184.1c-9.4-10.7-17.8-10.3-25.8,0.1c-0.5-1.2-0.9-1.6-0.8-1.8c5.7-10.5,4.2-18.5-8.9-22.9
			c0.4-0.4,0.9-0.9,1.3-1.3c2.9,0,5.8-0.4,8.6,0.1c5.5,0.9,8.1-1.4,8.9-6.7c0.4-2.5,1.6-5,2.5-7.7c2.4,1,2.2,3.3,2.8,5
			c3.2,9.2,3.1,9.2,13,9.3c1.7,0,3.5,0,5.1,0c0.1,0.7,0.2,1,0.1,1.1C495.1,164.8,490.2,171.9,498.2,184.1z"/>
		<path class="st3" d="M325.1,224.7c7.8-11.3,5.2-19.4-7.9-24.3c6.5-1.9,12.3,0.9,16.2-1.7c3.8-2.6,3.2-9,5.5-13.4
			c0.6,0.3,1.1,0.3,1.2,0.6c2.1,4.3,1.4,10.8,5.3,12.9c3.8,2,9.4,0.4,15.1,0.4c-2.5,4-5.9,5.6-8.8,7.6c-3,2-3.9,4-2.4,7.4
			c1.4,3.3,2.3,6.8,3.8,11.6c-3.7-2.6-6.5-4.2-8.7-6.3c-3.6-3.6-6.7-3.2-10.2,0.1c-2.2,2-4.8,3.6-7.3,5.3
			C326.3,224.8,325.7,224.8,325.1,224.7z"/>
		<path class="st3" d="M278.3,183.6c6-11.3,3.7-19.5-8.9-24.6c11.4-0.2,21.5-0.4,20-15.6c1.7,0.8,2.2,1,2.3,1.2
			c1.8,11.4,7.2,17.5,20.7,12.2c-0.2,0.8-0.3,1.6-0.5,2.3c-2.9,2.2-5.7,4.6-8.9,6.5c-3,1.8-3.6,3.8-2.3,6.9
			c1.4,3.3,2.3,6.8,3.9,11.7c-3.1-2.2-5.3-3.3-7-5c-4.4-4.4-8.6-4.9-13.2-0.2C282.7,180.9,280.4,182.1,278.3,183.6z"/>
		<path class="st3" d="M215.5,158.3c-12.9,5.8-14.8,14.1-8,26c-9.3-11-17.8-10.5-26.8-1.2c0.6-2.1,0.9-4.3,1.9-6.2
			c3.6-6.6,1.8-11.2-4.8-14.3c-1.7-0.8-3.1-2.4-4.7-3.7c0.6-0.4,0.9-0.9,1.1-0.8c11.4,2.1,18.4-1.8,18.5-14.5
			c1.2,0.5,1.8,0.6,1.8,0.8C196.4,156,202.2,161.5,215.5,158.3z"/>
		<path class="st3" d="M118.6,158.3c-13,5.7-14.8,14.1-8,26c-9.3-11-17.8-10.4-26.6-1.2c1.4-5,4.7-10.5,3.5-14.7
			c-1.1-3.9-7.2-6.3-11.1-9.5c0.6-0.4,0.9-0.8,1.2-0.8c11.5,2.2,18.4-1.9,18.5-14.5c1.2,0.5,1.8,0.6,1.8,0.8
			C99.4,156.2,105.5,161.4,118.6,158.3z"/>
		<path class="st3" d="M61.2,143.5c-8.5-11.7-17-10.8-26.2-0.7c6.9-11.9,4.8-20.2-7.9-24.7c1.1-0.9,1.4-1.3,1.7-1.3
			c4.8-0.5,10.8,1.9,14.1-1c3.1-2.7,3.5-8.7,5.1-13.1c1.6-0.1,1.6,1,1.9,1.9c4.1,11.8,4.1,11.8,17,12.1c0.7,0,1.5,0.1,3.5,0.3
			c-3.7,2.7-6.3,5.1-9.3,6.8c-3.6,2-3.9,4.4-2.5,7.9c1.3,3.1,2.2,6.4,3.2,9.7C61.6,142.2,61.4,142.8,61.2,143.5z"/>
		<path class="st3" d="M554.7,117.1c-4.8,3.8-10.7,6.3-12,10.3c-1.3,3.9,2.2,9.4,3.9,15.2c-2.4-1.6-4.3-2.5-5.7-3.9
			c-5.1-5.2-9.9-5.8-15.1-0.2c-1.4,1.5-3.5,2.5-6.1,4.3c0.9-3.1,1.5-5.2,2.2-7.2c2.8-8.7,2.8-8.7-4.8-14.2c-1.6-1.1-3.1-2.4-4.6-3.6
			c1-1.6,2.4-0.9,3.4-0.9c12-0.1,12-0.1,15.8-11.3c0.3-0.9,0.6-1.9,0.9-2.7c1.7-0.2,1.7,0.9,2,1.8c4.2,11.9,4.2,11.9,17,12.1
			C552.2,116.8,552.9,116.9,554.7,117.1z"/>
		<path class="st3" d="M256.1,142.9c-3.3-2.3-5.8-3.6-7.7-5.5c-4.3-4.3-8.1-4-12.2,0.2c-1.8,1.8-4.2,3.1-6.4,4.6
			c-0.3-0.6-0.6-0.9-0.5-1.2c1-4.9,5.3-9.9,3.4-14.2c-1.7-3.9-7.2-6-11.5-9.3c2.5-1.4,4.9-1.1,7-0.7c7.2,1.3,10.7-1.9,11.7-8.7
			c0.3-1.9,1.2-3.7,1.9-5.5c0.7,0.3,1.2,0.4,1.3,0.6c2,4.3,1.4,10.8,5.3,12.9c3.8,2,9.4,0.4,15.3,0.4c-2.8,3.9-6.1,5.6-9.1,7.5
			c-3.1,2-3.8,4.1-2.4,7.4C253.7,134.8,254.6,138.3,256.1,142.9z"/>
		<path class="st3" d="M415.5,117.8c0.3-0.5,0.4-0.8,0.5-0.8c11.1,1.5,19.4-0.8,19-14.5c1.3,0.4,1.9,0.5,1.9,0.6
			c1.6,11.9,7.9,16.9,20.8,13c-0.2,0.6-0.3,1.2-0.5,1.7c-2.2,1.6-4.2,3.5-6.5,4.8c-4.9,2.6-6.5,5.8-3.7,11c1.3,2.4,1.7,5.3,2.9,9.4
			c-4-2.9-7.2-4.8-9.9-7.2c-2.6-2.3-4.7-2.3-7.3,0c-2.7,2.4-5.8,4.3-8.7,6.4c-0.4-0.4-0.8-0.7-0.7-0.9c1-4.9,5.3-10,3.5-14.2
			C424.9,123,419.3,120.8,415.5,117.8z"/>
		<path class="st3" d="M353,143.1c-3.7-2.6-6.5-4.1-8.7-6.3c-3.7-3.7-6.7-3.1-10.2,0.2c-2.2,2-4.8,3.6-7.3,5.4
			c-0.3-0.6-0.6-1-0.6-1.2c5.6-10.4,4.4-18.6-8.8-22.8c0.4-0.5,0.8-1,1.2-1.5c3.4,0,6.9-0.4,10.2,0.1c4.4,0.6,6.1-1.3,6.9-5.3
			c0.7-3.1,2-6,3-9c0.7,0.3,1.2,0.4,1.3,0.6c2,4.3,1.4,10.8,5.3,12.9c3.8,2,9.4,0.4,15.2,0.4c-2.7,3.9-6,5.6-9,7.5
			c-3.1,2-3.8,4-2.4,7.4C350.6,134.8,351.5,138.3,353,143.1z"/>
		<path class="st3" d="M159.1,142.5c-1.6-0.9-2.5-1.3-3.2-1.8c-10.4-7.1-10.4-7.1-20.9,0.2c-0.7,0.5-1.4,0.8-2.1,1.2
			c-0.2-0.4-0.5-0.9-0.4-1.1c5.7-10.4,4.3-18.6-9-22.9c3.2-1.9,5.4-1.3,7.4-1.4c9.3-0.1,9.3,0,12.4-9.3c0.5-1.7,1.2-3.3,1.8-4.9
			c0.7,0.3,1.2,0.4,1.3,0.7c2,4.3,1.4,10.8,5.3,12.9c3.8,2,9.4,0.4,15.4,0.4c-2.9,3.8-6.2,5.6-9.2,7.6c-3.1,2-3.7,4.1-2.4,7.4
			C156.8,134.8,157.7,138.3,159.1,142.5z"/>
		<path class="st3" d="M166,34c0.1,0.8,0.2,1.1,0.1,1.2c-10.1,5.5-15.3,12.6-6.1,24.3c-0.6,0-1.3,0-1.9,0c-2.8-2-5.9-3.8-8.4-6.1
			c-3-2.7-5.4-2.6-8.3,0c-2.5,2.3-5.5,4.1-8.3,6.1c-0.3-0.5-0.7-0.8-0.6-1c1-4.9,5.3-10,3.5-14.2c-1.7-4-7.3-6.2-11.2-9.3
			c0.4-0.5,0.5-0.8,0.6-0.8c11.2,1.6,19.3-1,19-14.6c1.3,0.5,1.8,0.5,1.9,0.7c2.3,4.3,1.3,11.1,5.8,13.2C155.9,35.5,161.4,34,166,34
			z"/>
		<path class="st3" d="M242.4,18.7c1,14.5,9.1,17.2,20.2,15.5c0.1,0,0.2,0.2,0.4,0.4c0,1.5-1.5,1.7-2.3,2.4
			c-9.6,7.2-9.6,7.2-6.2,18.4c0.3,1.1,0.7,2.3,1.4,4.7c-3.8-2.7-6.8-4.5-9.4-6.8c-3-2.7-5.3-2.7-8.3,0c-2.5,2.3-5.5,4.1-8.3,6.1
			c-0.3-0.4-0.7-0.8-0.7-0.9c5.4-10.5,4.7-18.9-8.1-23c0.7-1,0.8-1.3,0.9-1.3C233.3,35.9,241.5,33.4,242.4,18.7z"/>
		<path class="st3" d="M359.9,34.1c-9.5,6.5-15.5,13.3-6.1,25.2c-0.6,0.1-1.3,0.1-1.9,0.2c-2.6-1.9-5.5-3.5-7.7-5.7
			c-3.5-3.3-6.4-3-9.8,0.1c-2.3,2.1-5.1,3.8-8.6,6.3c1.2-3.9,1.6-6.7,2.8-9.1c2.8-5.4,1.2-8.9-3.9-11.5c-2.2-1.2-4.1-3-6.3-4.6
			c1.4-1.5,2.9-0.9,4.1-0.9c11.4-0.1,11.4-0.1,15-10.7c0.4-1.1,0.8-2.3,1.3-3.6c2.4,1,2.2,3.3,2.7,5c3.1,9.2,3.1,9.3,13,9.3
			C356.3,34.1,358.1,34.1,359.9,34.1z"/>
		<path class="st3" d="M436.1,18.9c2.9,11.9,7.7,19.6,21.7,14.1c-0.2,0.7-0.4,1.4-0.5,2.1c-3,2.2-5.8,4.6-8.9,6.5
			c-3,1.8-3.6,3.8-2.3,6.9c1.4,3.3,2.3,6.8,3.9,11.7c-3.9-2.7-6.9-4.4-9.4-6.7c-3.2-3-5.7-2.6-8.8,0.1c-2.5,2.2-5.4,4-9.1,6.6
			c1.2-4,1.6-7.1,3-9.6c2.7-5,1.1-8.1-3.5-10.6c-2.4-1.3-4.5-3.2-6.8-5c1.4-1.5,2.9-0.9,4.1-0.9c11.4-0.1,11.4-0.1,15-10.7
			C434.8,22.3,435.2,21.2,436.1,18.9z"/>
		<path class="st3" d="M532.5,19.4c3.3,11.5,8.3,18.9,22.2,13.7c-0.2,0.6-0.4,1.3-0.6,1.9c-2.8,2.1-5.4,4.5-8.4,6.2
			c-3.5,2-4,4.4-2.5,7.9c1.3,3.1,2.2,6.4,3.6,10.9c-2.6-1.7-4.3-2.8-5.9-4c-7.6-5.5-7.6-5.5-15.1-0.2c-1.7,1.3-3.5,2.4-6.2,4.2
			c0.9-2.9,1.4-4.8,2-6.6c3-9.3,3-9.3-4.6-14.8c-1.6-1.1-3.1-2.4-4.7-3.6c0.5-0.4,0.8-0.9,1.1-0.8C524.7,36.2,532.1,32.8,532.5,19.4
			z"/>
		<path class="st3" d="M216,75.7c-11.4,6.3-16.7,13.4-7.9,24.6c-1.5,0.1-1.9,0.2-2.1,0.1c-8.2-8.5-16.4-9.8-23.9,0.9
			c-0.8-0.9-1.3-1.3-1.2-1.3c5.4-10.4,4.6-18.9-8.4-23.1c1.3-0.9,1.6-1.3,1.8-1.3c11.4,2.1,18.5-1.7,18.4-14
			c1.9-0.2,2.1,0.5,2.4,1.3c4.4,12.3,4.4,12.3,17.1,12.6C213,75.5,213.7,75.6,216,75.7z"/>
		<path class="st3" d="M304.6,101.7c-3.3-2.4-5.8-3.7-7.7-5.6c-4.2-4.2-8.1-4-12.2,0.1c-1.8,1.8-4.2,3.1-6.3,4.6
			c-0.3-0.5-0.6-0.9-0.6-1.1c5-10.2,5.6-18.9-9.4-22.6c0.6-0.6,1.2-1.1,1.9-1.7c2.8,0,5.6-0.3,8.4,0.1c5.2,0.7,8.3-0.8,9.1-6.4
			c0.4-2.7,1.7-5.2,2.7-7.8c0.7,0.3,1.2,0.4,1.3,0.6c2,4.3,1.5,10.8,5.3,12.9c3.7,2,9.4,0.4,14.9,1.6c-2.9,2.2-5.6,4.6-8.6,6.4
			c-3.2,1.9-3.7,4.1-2.4,7.4C302.1,93.5,303,97,304.6,101.7z"/>
		<path class="st3" d="M387.1,61.3c0.8,0.1,1.1,0.1,1.1,0.2c1.8,11.5,7.5,17.6,20.7,13c-0.1,0.6-0.1,1.3-0.2,1.9
			c-2.5,1.8-4.8,3.9-7.4,5.4c-4.2,2.3-5.5,5.1-3.2,9.7c1.4,2.8,1.9,6,2.6,9.9c-8.7-10.2-17.2-10.9-25.4,0.6
			c-0.5-1.7-0.8-2.1-0.7-2.4c1-4.8,5.3-9.9,3.4-14.2c-1.7-3.9-7.2-6-12.4-10c4.9,0,8.4-0.3,11.8,0.1c3.9,0.4,5.8-1,6.7-4.9
			C384.8,67.5,386.1,64.4,387.1,61.3z"/>
		<path class="st3" d="M498,100.6c-0.7,0-0.9,0.1-1,0c-8.4-8-16.7-10.6-24.6,1.2c-0.6-1.4-0.9-1.8-0.8-2c5.6-10.4,4.3-18.5-8.8-22.9
			c0.4-0.5,0.8-0.9,1.2-1.4c3.6,0,7.3-0.2,10.9,0.1c3.4,0.3,5.1-0.8,5.9-4.2c0.8-3.4,2.1-6.7,3.2-10.2c0.8,0.4,1.3,0.5,1.4,0.8
			c2,4.3,1.4,10.8,5.3,12.9c3.8,2,9.4,0.4,14.8,1.6c-2.9,2.2-5.6,4.7-8.8,6.5c-3.3,1.9-3.5,4.2-2.3,7.4
			C495.9,93.6,496.9,97,498,100.6z"/>
		<path class="st3" d="M110.5,101.4c-9.4-10.6-17.7-10.2-25.6,0c-0.6-1-1-1.4-1-1.6c5.6-10.5,4.3-18.8-8.4-23.5
			C87,76.2,97,76,95.5,60.9c1.6,0.7,2.2,0.8,2.2,0.9c1.5,12,8,16.7,19.9,13.2c-0.1,1.2,0,1.5-0.1,1.5
			C107.3,82.1,102.6,89.3,110.5,101.4z"/>
		<path class="st3" d="M61.9,59.2c-0.6,0-0.8,0.1-1,0C56.5,57,53,51,48.4,51.6c-4.4,0.5-8.4,5.1-12.6,7.9c-0.1-0.5-0.4-1-0.3-1.2
			c5.8-10.5,4.1-18.5-8.9-22.8c0.4-0.5,0.8-0.9,1.2-1.4c3.7,0,7.4-0.3,11,0.1c3.4,0.3,5.1-0.9,5.9-4.2c0.8-3.4,2.1-6.7,3.2-10.2
			c0.8,0.5,1.4,0.7,1.4,0.9c1.4,12,8,16.5,20.3,12.7c-0.1,0.5-0.1,1.1-0.2,1.6c-2.7,2.1-5.3,4.5-8.3,6.2c-3.9,2.1-4.2,4.7-2.6,8.4
			C60.1,52.6,60.8,55.9,61.9,59.2z"/>
	</g>
</g>
</svg>
